<?xml version="1.0" encoding="UTF-8"?>
<svg width="617px" height="306px" viewBox="0 0 617 306" version="1.1" xmlns="http://www.w3.org/2000/svg" xmlns:xlink="http://www.w3.org/1999/xlink">
    <title>Artboard</title>
    <g id="Artboard" stroke="none" stroke-width="1" fill="none" fill-rule="evenodd">
        <g id="Logo" transform="translate(25.000000, 35.000000)" stroke="#F8F200" stroke-width="8">
            <g>
                <path d="M570.461928,124.321289 L570.374603,160.346164 C551.451019,160.281052 536.664905,160.243985 526.016666,160.234971 L525.450183,160.234515 L524.343662,160.233764 L518.872675,160.233837 L518.259004,160.234521 L517.362232,160.234274 C515.5458,160.230968 514.226457,160.211734 513.61309,160.208799 L513.376172,160.208754 C513.315348,160.20923 513.272947,160.210239 513.249791,160.211908 C513.081277,160.274228 513.363464,160.922656 513.355822,160.941103 C512.974511,161.861527 512.610486,162.997647 512.818814,163.688035 C513.124113,164.731491 515.376842,167.82808 517.762364,170.862525 L518.210763,171.430239 C520.440418,174.248753 523.753208,178.417643 526.521353,181.901146 C527.429945,183.04454 528.279911,184.114159 529.012018,185.035907 C537.519704,195.731694 538.451636,197.909614 539.235718,204.016326 C540.543087,214.218173 535.877473,225.329149 526.950798,232.639358 C519.197416,238.99364 519.167183,239.962897 467.195462,239.994991 L465.604601,239.995681 L456.368215,239.996303 C420.522369,239.985975 401.582999,239.604711 398.824218,238.986203 C393.74848,237.829473 385.507949,231.606805 364.080684,210.897182 C362.018083,208.905741 359.969123,206.967137 357.933784,205.081392 L356.409833,203.676995 L356.186566,240.017665 L315.280378,239.836299 L315.061381,125.577798 L392.601098,125.577798 C404.046234,125.971469 413.800136,131.480255 420.6082,138.897022 C428.665935,147.675192 432.394272,159.003313 430.586358,167.593793 C429.83342,171.179019 427.896122,176.368794 426.297158,179.129583 C423.02815,184.770107 414.742253,192.05533 407.982341,195.167971 C408.101429,195.716707 408.672046,196.119631 409.089738,196.5339 C410.849381,198.279122 412.826091,200.100861 413.946642,200.572343 C415.848493,201.373577 420.859893,201.456103 439.539483,201.472022 L440.737519,201.472945 C441.345722,201.473368 441.967778,201.473739 442.604018,201.474077 L444.025316,201.474777 C444.26605,201.474887 444.508719,201.474996 444.75334,201.475103 L446.244625,201.475738 C446.497121,201.475844 446.751602,201.475951 447.008083,201.476059 L448.571121,201.476738 L449.370896,201.477109 L452.042933,201.477723 L461.773601,201.479572 L464.435924,201.478848 C477.008061,201.471176 483.446973,201.424514 486.958328,200.859298 C488.499133,200.611277 488.754289,200.184368 489.158508,199.279846 C489.270477,199.029293 489.388282,198.765979 489.520634,198.480846 C489.832517,197.812897 489.59854,197.297991 489.071861,196.414029 C487.584281,193.917319 484.490217,190.297944 478.970821,184.03794 C465.553433,170.550716 464.685297,162.792729 464.627669,157.289819 L464.625054,156.955694 L464.624877,156.407151 C464.625748,156.191187 464.627542,155.978752 464.629406,155.768495 C464.503448,150.186598 466.541634,139.836064 474.697747,132.502144 C479.76519,127.945534 487.208049,124.454729 498.136643,124.33151 L498.736211,124.328143 L570.461928,124.321289 Z M356.18767,154.884861 L356.147993,172.949653 L356.491449,172.985141 C359.398088,173.274639 363.417287,173.408706 368.543461,173.419061 L368.543461,173.419061 L370.599473,173.418729 L371.101107,173.418031 C380.526682,173.403768 383.970971,173.329422 386.573301,172.567884 C386.681543,172.53304 386.793437,172.493595 387.197482,172.333436 L387.197482,172.333436 L387.477275,172.221926 L387.816454,172.066651 C389.375744,171.321214 390.604691,170.286638 391.472676,169.063202 C392.427631,167.717182 392.939995,166.153148 393.005197,164.558695 C393.071732,162.931641 392.673837,161.275112 391.817506,159.775973 C390.973366,158.298177 389.687497,156.981022 387.568839,155.758577 C385.554466,154.975994 381.921854,155.024097 369.864044,154.957751 L369.864044,154.957751 L356.18767,154.884861 Z" id="RS"></path>
                <path d="M255.178236,123.882823 L294.899863,239.004835 L256.231362,239.181618 L251.219114,223.052305 L203.294888,222.664941 L198.53974,238.783925 L160.159054,238.378262 L199.380061,123.933276 L255.178236,123.882823 Z M227.954029,155.73104 L214.957369,191.543155 L239.950167,191.510026 L227.954029,155.73104 Z" id="Combined-Shape"></path>
                <path d="M-0.739719816,124.732156 L37.6917255,124.756995 L51.506631,163.684493 L65.1136309,124.733755 L104.503484,124.735915 L118.240087,163.614984 L131.573366,125.121193 L170.187972,125.121193 L131.053821,239.987984 L104.353347,239.987984 L84.8063712,182.667052 L64.3548414,239.168129 L37.9135111,239.168129 L-0.739719816,124.732156 Z" id="W"></path>
                <path d="M411.359206,-3.14141514 L455.8447,-3.14040269 C478.866271,-3.1202803 494.742646,-2.73196953 497.876512,-2.18468682 C506.14006,-0.736259179 513.623363,3.68309292 519.22357,10.514376 C525.06788,17.635174 526.431493,21.0348889 527.194353,30.7955153 C527.74571,37.7425933 526.364017,44.2073309 523.246906,49.9103263 C520.269119,55.3584162 515.690572,60.1260713 509.599646,63.9053291 L509.024194,64.2567295 L508.413477,64.6233915 L507.813663,64.9810989 C506.517727,65.7512827 505.252915,66.4859001 504.16225,67.1060189 L504.137,67.12 C505.433964,68.5596422 507.257941,70.3148066 508.586095,71.395159 L508.862736,71.6159713 L510.884037,73.1981027 L570.36668,74.0571351 L571.07706,111.283726 L529.691891,111.282964 C503.611136,111.267519 495.15278,110.826307 492.604852,109.964563 C491.006423,109.418625 488.572817,107.988864 485.152141,105.309085 L484.794751,105.027393 L484.278576,104.615296 C479.085081,100.441389 471.368332,93.4157045 460.242511,82.7660228 L459.673849,82.2213865 L453.242905,76.0571932 L453.363818,111.283651 L411.359206,111.283651 L411.359206,-3.14141514 Z M465.647416,26.3127256 L452.713281,26.3126553 L452.713281,44.7097366 L467.7951,44.7096718 L469.741416,44.7087607 L470.669199,44.7087814 C474.041978,44.7117602 476.513876,44.745318 478.37441,44.7480935 L478.866888,44.7480411 C482.131549,44.7418381 483.364268,44.6093492 484.438982,43.9534022 C484.579399,43.8598201 484.724872,43.7515329 484.969039,43.5686167 C488.146332,41.1686596 489.323229,38.7108245 488.983662,34.8947467 C488.818284,33.0072563 488.468888,31.5286851 487.605653,30.3578853 C486.716419,29.1518223 485.338409,28.3162497 483.464619,27.4983896 C483.321169,27.4352075 483.177653,27.3762427 482.870928,27.2582264 C480.412891,26.3592981 477.267394,26.3266959 466.624615,26.3135017 L466.624615,26.3135017 L465.647416,26.3127256 Z" id="R"></path>
                <path d="M353.03225,-3.1413241 L392.65593,112.312088 L354.003538,112.098217 L349.123083,96.0092386 L301.419082,95.7954392 L296.632616,111.283651 L257.465479,111.283651 L296.669151,-3.1413241 L353.03225,-3.1413241 Z M325.798372,28.218976 L312.876867,64.899505 L338.174543,64.867492 L325.798372,28.218976 Z" id="Combined-Shape"></path>
                <path d="M268.788282,-4.00604112 L268.788282,30.4350169 L216.23068,30.4350169 L216.23068,111.285499 L176.896146,111.285499 L176.896146,30.3826467 L119.553585,30.5459344 C118.061031,30.5451715 116.981411,30.8711096 116.305705,31.5324205 C115.258845,32.5569776 115.161898,34.0341037 115.161898,34.7537285 C115.161898,34.9348244 115.188166,35.1151802 115.249015,35.3194659 C116.171106,37.8993157 118.956917,41.490343 126.046713,50.5332518 L126.046713,50.5332518 L126.64815,51.3034578 C126.947904,51.6884081 127.246118,52.0729943 127.542372,52.4566087 L128.132145,53.2223618 C134.001275,60.8633343 138.975183,67.9535344 139.704898,69.6312464 C142.197177,75.4104485 141.986581,82.7989259 139.52172,89.6841988 C137.116445,96.4030273 132.611349,102.548097 126.873683,106.122823 C126.693071,106.235234 126.517884,106.344836 126.347076,106.451693 C119.712054,110.602589 119.575681,111.274827 70.3861662,111.285088 L70.3861662,111.285088 L-4,111.285523 L-4,73.5867747 L88.5669284,73.5867747 L90.1821158,72.455152 C91.0930074,71.8156637 91.5579545,70.9048524 91.7555037,69.7195405 C91.8063094,69.4114988 91.8717379,69.1532197 91.8634309,68.8933598 C91.5446496,66.8590912 89.0903544,64.7786669 81.8726237,56.5883515 C79.7492707,54.1783138 77.929986,52.0832989 76.3673662,50.2168919 L76.3673662,50.2168919 L75.7958695,49.5305368 C67.1807959,39.1246692 66.4338534,35.4006266 67.0655982,26.5608436 C67.5522716,19.7148354 71.1021828,11.1148051 77.4881915,4.85778832 C82.6558688,-0.205506263 89.6207749,-3.74859005 98.1907962,-3.74858549 L98.1907962,-3.74858549 L268.788282,-4.00604112 Z" id="ST"></path>
            </g>
        </g>
    </g>
</svg>