<?xml version="1.0" encoding="UTF-8"?>
<svg width="247px" height="123px" viewBox="0 0 247 123" version="1.1" xmlns="http://www.w3.org/2000/svg" xmlns:xlink="http://www.w3.org/1999/xlink">
    <title>Artboard</title>
    <g id="Artboard" stroke="none" stroke-width="1" fill="none" fill-rule="evenodd">
        <g id="Logo" transform="translate(12.000000, 4.000000)" stroke="#000000">
            <path d="M130.748488,3.87356973 L139.207842,20.2304427 L165.435797,10.7562745 L162.515315,27.4565196 L192.581479,23.2828804 L178.986392,38.1622983 L209.588874,39.5008502 L187.393271,50.8442102 L215.361206,57.5 L187.393271,64.1557898 L209.588874,75.4991498 L178.986392,76.8377017 L192.581479,91.7171196 L162.515315,87.5434804 L165.435797,104.243725 L139.207842,94.7695573 L130.748488,111.12643 L112,97.3132771 L93.251512,111.12643 L84.7921582,94.7695573 L58.5642033,104.243725 L61.4846846,87.5434804 L31.4185207,91.7171196 L45.0136079,76.8377017 L14.4111262,75.4991498 L36.6067286,64.1557898 L8.63879393,57.5 L36.6067286,50.8442102 L14.4111262,39.5008502 L45.0136079,38.1622983 L31.4185207,23.2828804 L61.4846846,27.4565196 L58.5642033,10.7562745 L84.7921582,20.2304427 L93.251512,3.87356973 L112,17.6867229 L130.748488,3.87356973 Z" id="BG" stroke-width="4" fill="#E70B11"></path>
            <g transform="translate(52.000000, 32.000000)" stroke-width="2">
                <path d="M120.886492,26.1866991 L120.867271,34.1247168 C117.496351,34.1130435 114.738895,34.1055329 112.595115,34.1021864 L112.200348,34.1016078 L111.523337,34.1008089 L109.417776,34.1009851 C108.962096,34.1024638 108.747275,34.0948021 108.679354,34.092813 L108.654806,34.0924899 C108.747162,34.8654316 109.272536,35.5667151 109.794893,36.22573 C110.030807,36.5242661 110.324024,36.8943179 110.631484,37.2819785 L111.097976,37.8699377 C111.253446,38.0658341 111.407095,38.2593944 111.55354,38.4438801 C111.745843,38.6861349 111.925738,38.9127587 112.08062,39.1079675 C113.914428,41.4158567 114.107317,41.8880398 114.276173,43.2045404 C114.558964,45.4135917 113.553679,47.8217964 111.621634,49.4056582 C111.412831,49.5769603 111.256922,49.7043705 111.103736,49.819438 C109.480232,50.7956849 107.846431,50.9809633 100.68832,50.9971083 L100.277207,50.9978458 L99.5463792,50.9986027 L96.5858211,50.9992167 C88.9779349,50.9970224 84.9589408,50.9128709 84.3700148,50.7806898 C83.2896501,50.5342151 81.5244818,49.219688 76.9471556,44.790979 C76.6416549,44.4957057 76.3375713,44.2059249 76.0349032,43.9216386 L75.5819623,43.4993302 L75.5359018,51.004421 L66.5728572,50.9646393 L66.5259258,26.4529233 L83.0928232,26.4529233 C85.559869,26.5370678 87.6633556,27.7240089 89.1310022,29.3245701 C90.8745282,31.2259954 91.6702201,33.6802433 91.2795951,35.5383028 C91.1172988,36.3119199 90.6992638,37.4315546 90.3546061,38.027275 C89.6503998,39.2436378 87.8665276,40.8161649 86.4061662,41.4892992 C87.1313155,41.9626577 87.4153667,42.2189069 87.6093571,42.3251686 C88.4165575,42.4997562 89.9021903,42.5258817 93.8785231,42.5320219 L94.6064527,42.5329241 L95.6702543,42.5334158 L98.6942668,42.5332745 C101.125971,42.5300425 102.380498,42.5176185 103.070297,42.3985418 C103.063274,41.166708 102.413511,40.4080322 101.257078,39.0950206 C98.4148309,36.2339943 98.1872047,34.5739623 98.1787082,33.3907285 L98.1789513,33.192424 C98.1794498,33.1277893 98.1802169,33.0645763 98.1808056,33.00265 C98.1542967,31.8002452 98.5954295,29.5555881 100.357474,27.9646736 C101.421081,27.0043651 102.968789,26.2586953 105.225402,26.1928912 L105.552623,26.1881658 L120.886492,26.1866991 Z M75.5367369,32.9679505 L75.5289779,36.5042891 L75.7498359,36.5227958 C76.2862101,36.5630932 76.96982,36.5834022 77.7999069,36.5880327 L77.7999069,36.5880327 L78.6856284,36.588229 L78.9428773,36.5875308 C80.9376831,36.5818203 81.4369275,36.5702687 81.9438851,36.3481123 C82.2803139,36.2005901 82.5439964,35.9873228 82.7259279,35.7306166 C82.9107382,35.4698484 83.0097729,35.1668152 83.0223903,34.8579408 C83.0353422,34.5408765 82.9575419,34.2181846 82.7908792,33.9261068 C82.6242798,33.63414 82.3698356,33.3746568 82.0334492,33.1731119 C81.7593908,33.0086031 81.4105658,32.9877242 80.3006155,32.9855427 L80.3006155,32.9855427 L79.0776247,32.9852545 C78.833365,32.9849234 78.5673471,32.9841698 78.2772545,32.9825719 L78.2772545,32.9825719 L75.5367369,32.9679505 Z" id="RS" fill="#F8F104"></path>
                <g id="A" transform="translate(35.076851, 27.094365)">
                    <path d="M19.0387099,-1.00064564 L27.5502547,23.6938154 L19.038943,23.7327682 L17.977705,20.3141084 L8.06318232,20.233886 L7.05671679,23.649213 L-1.39428869,23.5597959 L7.01009261,-0.989757854 L19.0387099,-1.00064564 Z" id="Path" fill="#F8F104"></path>
                    <path d="M13.1616503,6.36522127 L15.4935349,13.327533 L10.635278,13.3339796 L13.1616503,6.36522127 Z" id="Path" fill="#E70B11"></path>
                </g>
                <path d="M-0.369912405,26.2736237 L8.08572111,26.2790947 L10.8997329,34.2167877 L13.6714868,26.2740947 L22.2259132,26.2745641 L25.0229191,34.1993901 L27.7367328,26.356185 L36.2325168,26.356185 L27.846327,50.9974543 L21.9753288,50.9974543 L17.9441192,39.1635278 L13.7279667,50.8237561 L7.9136521,50.8237561 L-0.369912405,26.2736237 Z" id="W" fill="#F8F104"></path>
                <path d="M86.9067103,-0.818141211 L96.7890967,-0.817508053 C101.506261,-0.810383326 104.746209,-0.726911998 105.397359,-0.613078018 C107.181699,-0.299989092 108.798169,0.65448269 110.007522,2.13124739 C111.26877,3.66959937 111.563854,4.40377839 111.728489,6.51248816 C111.847629,8.01524055 111.548444,9.41345748 110.87494,10.6469915 C110.212915,11.8594999 109.184771,12.9168125 107.81061,13.7435085 C107.510379,13.9245461 107.206588,14.1029867 106.938065,14.2574843 C107.165721,14.4981048 107.43974,14.7599655 107.66341,14.9490823 L107.790797,15.0530713 L120.863125,15.5396897 L121.019245,23.7296257 L111.883978,23.7292795 C106.500782,23.7245221 104.741255,23.6233565 104.20269,23.4410088 C103.381741,23.1603101 101.400713,21.5651183 97.4634811,17.8020329 L97.1789127,17.5295427 L96.0791001,16.4742328 L96.1039775,23.729587 L86.9067103,23.729587 L86.9067103,-0.818141211 Z M99.0060752,5.72790334 L95.9657737,5.72741452 L95.9657737,9.31968048 L99.869688,9.31896772 L100.103801,9.31878224 C101.986,9.32020119 102.174595,9.39014494 102.546036,9.10925317 C103.169083,8.6381302 103.402431,8.15640798 103.335762,7.40638203 C103.303663,7.03964182 103.241134,6.7499314 103.073164,6.52187302 C102.898812,6.28515004 102.62532,6.12571813 102.261411,5.96671793 C101.733961,5.73416536 101.213076,5.73353131 99.0060752,5.72790334 L99.0060752,5.72790334 Z" id="R" fill="#F8F104"></path>
                <g id="A" transform="translate(55.674962, 0.181923)">
                    <path d="M19.1506673,-1 L27.6416345,23.7667457 L19.1322042,23.7196114 L18.0993399,20.3110492 L8.23069013,20.2667731 L7.21783879,23.5476642 L-1.39919886,23.5476642 L7.00229028,-1 L19.1506673,-1 Z" id="Path" fill="#F8F104"></path>
                    <path d="M13.2740087,6.26733009 L15.6831643,13.4089174 L10.7586979,13.4151557 L13.2740087,6.26733009 Z" id="Path" fill="#E70B11"></path>
                </g>
                <path d="M57.0398481,-1.00151188 L57.0398481,6.60063918 L45.9165461,6.60063918 L45.9165461,23.7299787 L37.2848987,23.7299787 L37.2848987,6.5899815 L25.3012399,6.62413836 C25.0392733,6.62413836 24.8430885,6.67126377 24.7226656,6.78924603 C24.5363792,6.97175689 24.5263275,7.23608762 24.5263275,7.36307808 C24.5263275,7.87493488 25.0313168,8.35720733 26.7976753,10.6125527 C28.2345552,12.4493677 29.5342503,14.2919197 29.709271,14.6947538 C30.24927,15.9482635 30.2085393,17.554388 29.6729808,19.0519868 C29.1521961,20.5082729 28.1749573,21.8383454 26.9347605,22.6118399 C26.6128126,22.8133281 26.4392817,22.9206391 26.2620788,23.0152712 C25.1162759,23.5855015 23.788445,23.7223502 16.2827536,23.7291829 L16.2827536,23.7291829 L-1,23.7300276 L-1,15.437876 L18.6956477,15.437876 C19.1569457,15.1141134 19.2334673,14.9522488 19.2670168,14.7508193 C19.3617358,14.1649854 18.969696,14.08609 17.2120632,12.0895046 C14.0788106,8.52944825 13.8806423,7.85882835 14.0407192,5.6165553 C14.1458857,4.13561708 14.9115903,2.27442054 16.291854,0.920604391 C17.4124338,-0.17850371 18.9229876,-0.94673518 20.7808877,-0.946734039 L20.7808877,-0.946734039 L57.0398481,-1.00151188 Z" id="ST" fill="#F8F104"></path>
            </g>
        </g>
    </g>
</svg>